<?xml version="1.0" encoding="UTF-8" standalone="no"?>
<svg
   version="1.1"
   viewBox="0 0 166.27194 192"
   id="svg47"
   sodipodi:docname="mixtime.svg"
   inkscape:version="1.4.2 (1:1.4.2+202505120737+ebf0e940d0)"
   width="166.27194"
   height="192"
   inkscape:export-filename="mixtime.png"
   inkscape:export-xdpi="39.248562"
   inkscape:export-ydpi="39.248562"
   xmlns:inkscape="http://www.inkscape.org/namespaces/inkscape"
   xmlns:sodipodi="http://sodipodi.sourceforge.net/DTD/sodipodi-0.dtd"
   xmlns="http://www.w3.org/2000/svg"
   xmlns:svg="http://www.w3.org/2000/svg">
  <defs
     id="defs47">
    <linearGradient
       id="gradient_1_"
       gradientUnits="userSpaceOnUse"
       x1="305.6709"
       y1="404.72559"
       x2="305.6709"
       y2="134.4175"
       gradientTransform="matrix(0.2717599,0,0,0.2717599,-0.02255607,-33.188134)">
      <stop
         offset="0"
         style="stop-color:#FFFFFF;stop-opacity:0"
         id="stop1" />
      <stop
         offset="1"
         style="stop-color:#FFFFFF"
         id="stop2" />
    </linearGradient>
  </defs>
  <sodipodi:namedview
     id="namedview47"
     pagecolor="#ffffff"
     bordercolor="#000000"
     borderopacity="0.25"
     inkscape:showpageshadow="2"
     inkscape:pageopacity="0.0"
     inkscape:pagecheckerboard="0"
     inkscape:deskcolor="#d1d1d1"
     inkscape:zoom="0.33161492"
     inkscape:cx="1130.8297"
     inkscape:cy="857.9228"
     inkscape:window-width="1870"
     inkscape:window-height="1052"
     inkscape:window-x="0"
     inkscape:window-y="0"
     inkscape:window-maximized="1"
     inkscape:current-layer="svg47" />
  <polygon
     id="fill"
     fill="#e1f0fb"
     points="611.917,572.024 306,748.629 0.083,572.021 0.083,218.728 306,42.123 611.917,218.728 "
     transform="matrix(0.27175989,0,0,0.27175989,-0.02255607,-11.447342)" />
  <path
     id="gradient"
     opacity="0.2"
     fill="url(#gradient_1_)"
     d="M 83.024827,3.3410162 16.071073,42.102402 c 10.049408,20.255624 36.223413,34.697489 66.929017,34.697489 30.80018,0 57.04104,-14.531003 67.0217,-34.884731 z"
     style="display:inline;fill:url(#gradient_1_);stroke-width:0.27176" />
  <path
     id="outline"
     fill="#ec6b00"
     d="M 159.64182,44.169951 96.780773,7.8745149 83.13598,7.3332401e-8 69.491188,7.8745149 6.6301273,44.169951 3.4526028e-6,47.994156 V 144.00503 L 6.6298607,147.82896 70.260267,184.5777 83.13598,192 l 12.875437,-7.4223 63.630403,-36.74793 6.63012,-3.82365 V 47.994156 Z m 0,96.237519 L 83.13598,184.5777 6.6301273,140.40747 V 52.044738 L 83.13598,7.8745149 v 0 l 76.50584,44.1702231 z"
     style="stroke-width:0.27176" />
  <g
     id="g54"
     transform="matrix(0.11107596,0,0,0.11107596,19.609808,42.484785)">
    <path
       style="display:inline;fill:#0c1f2b;fill-opacity:1"
       d="m 991.5,22.869141 c -20.66,0.04 -301.99333,0.05125 -844,0.03125 -9.76,0 -17.94411,3.429062 -24.55078,10.289062 -6.28667,6.52 -9.42346,14.704114 -9.41016,24.550781 0.1067,109.119996 0.118,287.376206 0.0312,534.769536 -0.01,12.89 6.58008,23.16929 17.83008,29.02929 3.22,1.67333 7.67581,2.75047 13.36914,3.23047 4.14667,0.35333 9.89047,0.5107 17.23047,0.4707 559.9056,-3.10741 36.10278,0.48069 827.4395,-0.0195 2.49,0 6.04032,-0.45984 8.07032,-0.58984 13.44003,-0.85 25.12083,-12.50078 28.13083,-24.80078 0.4467,-1.84 0.6702,-8.40589 0.6602,-19.69922 -0.107,-166.16667 -0.1186,-338.28489 -0.031,-516.351563 0,-4.9 0.2413,-10.29836 -0.7187,-14.568359 C 1021.8308,32.640937 1008.21,22.829141 991.5,22.869141 Z"
       id="path3"
       sodipodi:nodetypes="ccccccccccccccc" />
    <g
       id="g50"
       style="display:inline">
      <path
         fill="#f8f5f0"
         d="m 962.92,192.16 c -0.0108,0.31814 -0.27628,0.57037 -0.6,0.57 l -163.52,0.41 c -11.27333,-0.30667 -22.54,-0.46 -33.8,-0.46 -136.25333,0.04 -272.50333,0.0667 -408.75,0.08 -4.38667,0 -8.43667,0.12 -12.15,0.36 l -167.42,-0.37 c 0.0733,-30.05333 0.14333,-59.94333 0.21,-89.67 0.01,-2.83 0.25,-5.64 0.5,-8.79 0.61,-7.33 5.33,-13.98 11.24,-17.92 1.77333,-1.18 4.34667,-2.43 7.72,-3.75 0.40485,-0.159269 0.82862,-0.26353 1.26,-0.31 4.7,-0.52 8.08,-0.776667 10.14,-0.77 264.95333,0.346667 507.74667,0.36 728.38,0.04 5.38667,-0.0067 10.35667,1.55 14.91,4.67 8.07333,5.52 12.13,13.27 12.17,23.25 0.18853,42.8495 0.24241,75.62282 -0.29,92.66 z"
         id="path12"
         sodipodi:nodetypes="ccccccccccccccccc" />
      <path
         id="rect13"
         style="fill:#14232e"
         d="m 235.75,151.13 h 671.22003 c 0.72574,0 1.31,0.58426 1.31,1.31 v 0.86 c 0,0.72574 -0.58426,1.31 -1.31,1.31 H 235.75 c -0.72574,0 -1.31,-0.58426 -1.31,-1.31 v -0.86 c 0,-0.72574 0.58426,-1.31 1.31,-1.31 z m -1.70999,-38.31 H 907.22 c 0.67588,0 1.22,0.54412 1.22,1.22 v 0.76 c 0,0.67588 -0.54412,1.22 -1.22,1.22 H 234.04001 c -0.67588,0 -1.22,-0.54412 -1.22,-1.22 v -0.76 c 0,-0.67588 0.54412,-1.22 1.22,-1.22 z" />
    </g>
    <path
       id="path14"
       d="m 176.65,438.13 0.03,-245.38 785.64,-0.02 0.6,-0.57 0.22,245.99 z"
       style="display:inline;fill:#82b4cb;fill-opacity:1"
       sodipodi:nodetypes="cccccc" />
    <path
       fill="#f39d1b"
       d="m 963.14,438.15 c 0,0 0.12667,15.57333 0.16,23.6 0.05,10.11 -5.86,19.44 -15.98,21.76 -2.1,0.48667 -5.50667,0.73 -10.22,0.73 -245.98667,0.28667 -491.10333,0.27667 -735.35,-0.03 -3.84,-0.007 -6.68,-0.19 -8.52,-0.55 -9.07,-1.8 -15.14,-8.93 -16.55,-17.88 -0.45181,-2.81628 -0.19762,-18.09799 -0.03,-27.65 z"
       id="path38"
       style="display:inline;fill:#ec6b00;fill-opacity:1"
       sodipodi:nodetypes="ccccccccc" />
    <path
       fill="#60666a"
       d="m 267.81,618.37 a 0.44,0.44 0 0 1 -0.43,-0.54 q 11.38,-47.29 24.29,-100.2 3.88,-15.93 19.81,-17.93 3.56,-0.45 15.52,-0.42 134.42,0.33 222.5,-0.05 c 95.69,-0.41 165.75,-0.27 270.32,-0.28 5.27,0 10.25,0.02 14.95,1.59 7.56,2.51 11.03,9.14 12.79,16.42 q 12.83,53.04 25.08,102.98 a 1.38,1.38 0 0 1 -1.34,1.71 h -7.24 a 2.07,2.05 83.4 0 1 -2,-1.6 c -0.55,-2.4 -0.75,-4.33 -1.16,-6.04 Q 839.81,526.3 838.05,519.22 c -1.39,-5.54 -3.84,-10.37 -10.26,-10.36 q -358.7,0.8 -512.28,0.56 -8.26,-0.01 -11.87,5.08 -1.56,2.19 -4.04,12.66 -10.63,44.72 -21.84,90.56 a 0.85,0.85 0 0 1 -0.83,0.65 z"
       id="path39"
       style="display:inline" />
    <path
       id="circle42"
       style="display:inline;fill:#f8f5f0"
       d="m 798.21001,591.07001 a 17.57,17.57 0 0 1 -17.57,17.57 17.57,17.57 0 0 1 -17.57,-17.57 17.57,17.57 0 0 1 17.57,-17.57 17.57,17.57 0 0 1 17.57,17.57 z M 377.2,590.53003 a 17.389999,17.389999 0 0 1 -17.39,17.39 17.389999,17.389999 0 0 1 -17.39,-17.39 17.389999,17.389999 0 0 1 17.39,-17.39 17.389999,17.389999 0 0 1 17.39,17.39 z m 335.63,-11.98004 a 17.58,17.58 0 0 1 -17.58,17.58 17.58,17.58 0 0 1 -17.58,-17.58 17.58,17.58 0 0 1 17.58,-17.58 17.58,17.58 0 0 1 17.58,17.58 z m -249.76999,-0.37 a 17.49,17.49 0 0 1 -17.49,17.49 17.49,17.49 0 0 1 -17.49,-17.49 17.49,17.49 0 0 1 17.49,-17.49 17.49,17.49 0 0 1 17.49,17.49 z" />
    <path
       id="circle44"
       style="display:inline;fill:#60666a"
       d="m 1004.88,591.41998 a 14.47,14.47 0 0 1 -14.47003,14.47 14.47,14.47 0 0 1 -14.47,-14.47 14.47,14.47 0 0 1 14.47,-14.47 14.47,14.47 0 0 1 14.47003,14.47 z m -839.84999,0.12 a 14.54,14.54 0 0 1 -14.54,14.54 14.54,14.54 0 0 1 -14.54,-14.54 14.54,14.54 0 0 1 14.54,-14.54 14.54,14.54 0 0 1 14.54,14.54 z M 1004.9785,57.535563 a 14.55,14.73 85.7 0 1 -13.59756,15.613481 14.55,14.73 85.7 0 1 -15.77948,-13.404607 14.55,14.73 85.7 0 1 13.5976,-15.613481 14.55,14.73 85.7 0 1 15.77944,13.404607 z m -839.79849,1.134435 a 14.69,14.69 0 0 1 -14.69,14.69 14.69,14.69 0 0 1 -14.69,-14.69 14.69,14.69 0 0 1 14.69,-14.689999 14.69,14.69 0 0 1 14.69,14.689999 z"
       inkscape:label="circle44" />
    <path
       id="circle46"
       style="display:inline;fill:#14232e"
       d="m 691.23002,744.46997 c 0,9.09061 -7.36939,16.46 -16.46,16.46 -9.09061,0 -16.46,-7.36939 -16.46,-16.46 0,-9.09061 7.36939,-16.46 16.46,-16.46 9.09061,0 16.46,7.36939 16.46,16.46 z M 419.1,744.09003 c 0,9.04642 -7.33358,16.38 -16.38,16.38 -9.04642,0 -16.38,-7.33358 -16.38,-16.38 0,-9.04642 7.33358,-16.38 16.38,-16.38 9.04642,0 16.38,7.33358 16.38,16.38 z M 290.00753,618.23856 c -47.44867,119.06385 -161.63376,89.71854 -189.36691,125.1423 -9.839995,10.01 -14.991167,22.39859 -12.701167,36.55859 2.08,12.83333 8.427683,22.92792 19.041017,30.28125 17.28,11.96 36.39018,4.88016 53.66015,-4.08984 0.54669,-0.2867 1.20208,-0.4018 1.96876,-0.3418 0.56268,0.0494 0.9457,0.5947 0.80078,1.14063 -11.64667,42.61333 -21.19706,77.89008 -28.65039,105.83008 -0.21333,0.80667 -0.8831,3.80356 -2.00977,8.99023 -1.13333,5.22667 3.9e-4,9.76269 3.40039,13.60938 0.20479,0.23108 0.45306,0.42172 0.73047,0.56054 3.50667,1.75333 6.92333,2.52698 10.25,2.32031 0.3714,-0.0265 0.73011,-0.10443 1.06836,-0.23046 5.08667,-1.92667 8.40761,-5.78985 9.96094,-11.58985 9.32667,-34.74 14.26078,-53.13612 14.80078,-55.18945 2.18,-8.20667 6.00518,-16.7838 11.47851,-25.73047 7.15333,-11.70667 15.02777,-21.42372 23.6211,-29.15039 4.3,-3.86667 8.10968,-6.56938 11.42968,-8.10938 2.74,-1.27 7.27016,-1.93992 8.91016,1.08008 0.9,1.66 1.38875,3.64566 1.46875,5.95899 0.16,4.32 -0.0787,8.5607 -0.71875,12.7207 -0.84667,5.51333 -2.90636,14.76333 -6.17969,27.75 -4.51333,17.86667 -9.90831,38.13411 -16.18164,60.80078 -0.81333,2.94667 -1.22151,6.25636 -1.22851,9.92969 -0.02,14.22 18.29875,15.21984 23.71875,3.83984 0.98,-2.07333 2.24745,-6.24 3.80078,-12.5 3.48667,-14.07333 6.27581,-24.70086 8.36914,-31.88086 1.62,-5.54667 3.48823,-10.76372 5.60156,-15.65039 7.28,-16.78 16.48581,-32.492 27.61914,-47.13867 3.89,-5.11 15.17078,-18.18008 22.80078,-12.33008 1.78667,1.36667 2.73008,3.26589 2.83008,5.69922 0.26667,6.42667 -0.44109,13.06659 -2.12109,19.91992 -1.78667,7.26667 -5.24247,20.71628 -10.36914,40.34961 -2.84,10.86667 -4.31325,21.84808 -4.41993,32.94141 -0.12998,13.28 6.82961,26.08047 20.84961,28.23047 19.21,2.94 34.92961,-10.49047 46.84961,-23.73047 0.46962,-0.52671 1.33685,-0.31502 1.50977,0.36914 3.61,14.03 15.70039,23.34008 30.40039,23.58008 5.89333,0.1 10.95612,-0.4093 15.18945,-1.5293 10.38,-2.76 20.20714,-7.58403 29.48047,-14.4707 13.13,-9.75 24.32024,-20.68977 35.74024,-33.75977 0.21333,-0.24 0.54049,-0.47255 0.98046,-0.69922 0.41837,-0.21479 0.92574,0.0294 1.01954,0.49024 4.84,23.5 16.11031,50.62961 45.07031,50.34961 13.5,-0.13 24.05047,-4.90969 34.23047,-13.17969 0.74107,-0.59969 1.83739,-0.42857 2.35937,0.36914 4.54,6.95333 10.79,10.98628 18.75,12.09961 7.26667,1.01333 14.86238,-0.39714 22.78907,-4.23047 4.46666,-2.16 8.17132,-4.38636 11.11132,-6.67969 8.35333,-6.53333 15.83589,-14.07557 22.44922,-22.6289 0.39371,-0.50483 1.20309,-0.21009 1.17969,0.42968 -0.27,7.9 0.95101,15.69039 5.29101,22.40039 4.23001,6.54 10.57852,10.33024 18.22852,10.74024 5.72667,0.30667 10.85109,-0.57086 15.37109,-2.63086 8.50667,-3.88 15.93574,-9.21023 22.28907,-15.99023 0.32378,-0.34666 0.90539,-0.11495 0.90039,0.35937 l -0.01,1.03125 -0.0898,5.91016 c 0.23333,5.84667 2.78682,9.50208 7.66015,10.96875 4.86,1.46 9.17589,0.48673 12.94922,-2.91992 2.84,-2.57002 4.50047,-7.34969 5.48047,-11.17969 2.47333,-9.7 4.66985,-18.33372 6.58985,-25.90039 3.3,-12.99333 5.63333,-21.59216 7,-25.79883 5.69333,-17.53333 14.8034,-33.74419 27.33007,-48.63086 4.82,-5.74 10.58746,-10.21945 17.30078,-13.43945 4.76,-2.29 12.27985,-2.8511 13.58985,4.1289 0.71333,3.83333 0.6455,7.9938 -0.20117,12.48047 -1.44,7.68667 -4.09852,19.61458 -7.97852,35.78125 -4.5,18.74 -9.37753,38.21325 -14.63086,58.41992 -2.76,10.62 1.9493,18.66914 13.7793,17.61914 6.12,-0.54 9.66117,-7.0792 10.95117,-12.19922 3.95333,-15.69997 7.34945,-29.05078 10.18945,-40.05078 6.24,-24.2 18.57086,-48.85937 36.38086,-66.60937 3.95,-3.94 9.24836,-8.53109 14.81836,-9.12109 6.82,-0.73001 9.32008,4.34039 9.08008,10.15039 -0.24,5.92667 -1.01675,11.42976 -2.33008,16.50976 -3.64,14.1 -7.56286,29.50117 -11.76953,46.20117 -2.58,10.25333 -3.45556,20.14636 -2.62891,29.67969 0.91,10.36 6.3186,20.16897 15.8086,24.20899 5.25333,2.23332 11.93434,2.60156 20.04101,1.10156 14.07,-2.61 26.4704,-12.46117 36.15039,-22.70117 0.5621,-0.58865 1.52684,-0.48322 1.93946,0.21093 4.84667,8.01333 11.2839,14.30247 19.31054,18.86914 23.10001,13.14 55.03016,4.0308 75.41017,-9.94922 22.22,-15.24999 39.8283,-38.22039 46.0683,-64.40039 6.24,-26.2 2.0304,-54.92109 -11.9296,-77.87109 -7.83,-12.85 -19.0697,-23.77867 -31.4297,-32.63867 C 957.2753,720.88262 859.88816,687.86393 851.80441,624.30013 l -19.74024,0.28907 c 8.02349,71.45747 102.13905,104.11995 120.8458,116.00064 6.81333,4.34667 19.2207,11.78698 37.2207,22.32032 10.96003,6.42 23.25933,16.26048 30.35933,26.98046 16.98,25.64 18.4995,56.66938 3.9395,83.85938 -10.01,18.68 -27.18953,35.69086 -47.26953,42.63086 -8.79,3.03 -19.95063,3.39914 -28.64063,-0.38086 -8.79333,-3.82667 -14.71,-10.81737 -17.75,-20.9707 -0.48,-1.60667 -0.0664,-2.62216 1.24024,-3.04883 9.26666,-3.05333 18.68023,-7.29404 28.24023,-12.7207 9.76667,-5.56 18.03411,-12.05381 24.80078,-19.48047 10.68,-11.72 18.80941,-26.6293 19.10941,-42.5293 0.16,-8.15 -2.2893,-17.22016 -7.69925,-23.66016 -8.14,-9.69333 -18.93729,-13.37744 -32.39063,-11.05078 -4.55333,0.78667 -9.9545,3.15491 -16.20117,7.10156 -5.72,3.61334 -11.64286,9.28003 -17.76953,17 -17.84,22.47002 -26.25047,50.83868 -25.48047,79.38868 0.0667,2.33333 -0.51667,4.19341 -1.75,5.58008 -2.68,3 -6.36216,6.7376 -11.04883,11.21093 -5.46,5.2 -12.45023,11.13047 -19.74023,12.98047 -0.32459,0.0795 -0.66217,0.10653 -1,0.0801 -6.41,-0.54 -6.29008,-6.78094 -6.08008,-11.46094 0.27333,-6.22666 1.02023,-11.69992 2.24023,-16.41992 3.20667,-12.38667 6.54,-25.30333 10,-38.75 3.18,-12.38 5.33008,-25.17914 5.08008,-37.86914 -0.39,-19.96 -14.49095,-30.77031 -33.71093,-27.82031 -6.28001,0.96 -12.14318,3.45185 -17.58985,7.47851 -7.58,5.6 -14.25596,12.33761 -20.0293,20.21094 -0.35622,0.48792 -1.12642,0.28051 -1.18945,-0.32031 -0.32,-3.23 -0.30086,-6.15008 -1.13086,-8.83008 -4.34,-14.09 -15.28086,-21.63023 -30.38086,-20.49023 -16.63,1.25999 -28.20976,10.5614 -39.25976,22.4414 -0.27662,0.31821 -0.79371,0.0472 -0.68946,-0.36133 0.2,-0.90666 0.50969,-1.96635 0.92969,-3.17968 2.34,-6.85 1.64141,-14.95969 -6.30859,-17.67969 -8.06,-2.76 -16.88063,0.19898 -18.89063,8.95898 -2.78,12.13334 -6.64937,29.90388 -11.60937,53.31055 -1.98,9.34667 -3.68156,15.88776 -5.10156,19.62109 -6.57002,17.21 -18.35,36.68891 -34.75,46.12891 -4.62001,2.67 -12.84844,5.43984 -13.39844,-2.91016 -0.71,-10.78 1.19828,-20.13023 3.98828,-31.24023 6.94667,-27.64667 13.11333,-51.59938 18.5,-71.85938 1.56,-5.88666 2.13713,-9.97929 1.73047,-12.27929 -1.14,-6.42 -7.74016,-10.59016 -14.41016,-9.41016 -5.26,0.94 -9.18914,6.04953 -10.61914,11.01953 -3.02667,10.52 -6.1162,22.34094 -9.26953,35.46094 -1.18667,4.93333 -2.94484,10.01161 -5.27148,15.23828 -10.33002,23.18 -25.45844,45.91031 -44.64844,62.57031 -2.9,2.52667 -6.06357,4.53482 -9.49024,6.02149 -15.16,6.59 -13.73148,-14.96071 -12.27148,-22.47071 8.3,-42.84666 19.02015,-85.03388 32.16016,-126.56054 0.17245,-0.54051 0.67727,-0.90302 1.24023,-0.89063 18.73333,0.25334 29.77753,0.35412 33.13086,0.30078 13.69,-0.19 15.80914,-18.82015 4.36914,-23.41015 -1.56667,-0.62667 -3.92675,-0.92706 -7.08008,-0.90039 -5.53333,0.0467 -13.72984,0.0405 -24.58984,-0.0195 -0.61965,-0.005 -1.05723,-0.60878 -0.86914,-1.19922 3.49333,-10.60667 6.81851,-22.16325 9.97851,-34.66993 4.32,-17.13999 -19.40992,-22.74976 -24.16992,-6.50976 -3.42,11.66 -7.20604,25.05302 -11.35937,40.17969 -0.31447,1.12999 -1.34117,1.91142 -2.50977,1.91015 -5.46,-0.02 -14.10922,-0.13823 -25.94922,-0.35156 -5.26,-0.09 -11.18109,0.29148 -15.12109,0.27148 -3.85334,-0.02 -6.57039,0.36683 -8.15039,1.16016 -8.23,4.1 -8.75008,17.55859 -0.33008,21.8086 1.48667,0.74666 3.70372,1.12419 6.65039,1.13085 6.96,0.02 19.26349,0.12388 36.91016,0.31055 0.5228,0.003 0.89425,0.51016 0.74023,1.00977 -6.14667,20.14 -11.33078,38.33651 -15.55078,54.58984 -5.84,22.49 -10.07844,42.86031 -14.39844,66.32031 -0.74667,4.04 -1.77031,7.27565 -3.07031,9.70899 -5.9,11.04 -18.17125,24.61961 -32.28125,18.09961 -7.18,-3.31 -12.16977,-15.86875 -14.25977,-22.96875 -2.78666,-9.42 -4.87619,-18.00334 -6.26953,-25.75 -0.49,-2.7 1.15047,-4.61985 3.23047,-7.33985 14.07,-18.29 27.80906,-36.23125 44.03906,-52.53125 10.74,-10.79 -2.63937,-27.90009 -15.10937,-18.83007 -3.62,2.63333 -7.67969,6.56434 -12.17969,11.79101 -8.73333,10.13333 -17.59961,21.2938 -26.59961,33.48047 -0.34812,0.4733 -1.07869,0.38947 -1.31055,-0.15039 -0.29333,-0.66 -0.53093,-1.32357 -0.71093,-1.99024 -2.83334,-10.45333 -5.73565,-22.45953 -8.70899,-36.01953 -3.83,-17.43 -27.43992,-13.8714 -25.66992,3.3086 0.68,6.56 1.77263,12.92008 3.2793,19.08008 2.94666,12.06664 6.2831,25.06664 10.00976,39 0.58,2.17998 -0.17914,3.73031 -1.61914,5.57031 -8.83333,11.28 -18.06278,21.83968 -27.68945,31.67969 -7.90667,8.08 -16.24505,14.5769 -25.01172,19.49023 -3.68,2.06 -10.57,4.78055 -15,4.06055 -7.73,-1.25 -9.95849,-7.48063 -9.72852,-14.39063 0.25,-7.15 2.36961,-14.95047 4.59961,-22.98047 9.76,-35.04666 16.70651,-61.67534 20.83985,-79.88867 1.20666,-5.31333 -0.12047,-9.65286 -3.98047,-13.01953 -4.87,-4.26 -14.59945,-3.22117 -18.18945,2.29883 -1.23334,1.89333 -2.1973,4.08364 -2.89063,6.57031 -1.85333,6.64 -6.39247,24.02372 -13.61914,52.15039 -5.86667,22.8 -16.9438,42.47596 -33.23047,59.0293 -4.36,4.43 -9.53039,8.18953 -15.65039,9.76953 -2.8,0.72 -4.74961,-0.24201 -5.84961,-2.88867 -0.0993,-0.23885 -0.16316,-0.48821 -0.18945,-0.74024 -0.67333,-6.29333 -0.38419,-11.94761 0.86914,-16.96093 6.06667,-24.23334 9.83411,-39.39185 11.30078,-45.47852 2.38,-9.92 3.97263,-19.208 4.7793,-27.86133 0.63333,-6.78 0.20117,-13.23891 -1.29883,-19.37891 -1.7,-6.92998 -6.01031,-13.01109 -13.07031,-15.87109 -4.67334,-1.89333 -8.86985,-2.8162 -12.58985,-2.76953 -9.46666,0.11333 -18.14148,3.03 -26.02148,8.75 -6.44,4.66667 -11.92255,10.16977 -16.44922,16.50977 -0.52,0.73333 -1.00255,1.23643 -1.44922,1.50976 -0.33271,0.21512 -0.77151,-0.0237 -0.77148,-0.41992 -0.06,-13.28 -6.59946,-24.95945 -20.43946,-27.18945 -15.64,-2.51 -30.65937,5.92078 -41.35937,17.05078 -0.16667,0.17333 -0.27675,0.32565 -0.33008,0.45898 -0.013,0.0449 -0.0376,0.0832 -0.0703,0.10938 l -2.39063,2.27148 c -0.51436,0.47164 -1.3237,-0.0311 -1.1289,-0.70117 0.95,-3.09 0.90853,-7.51977 -0.0215,-10.75977 -4.15,-14.36 -18.07976,-13.94953 -30.00976,-9.01953 -4.86667,2.00667 -10.35852,4.5838 -16.47852,7.73047 -7.05,3.63 -15.50156,5.51883 -22.35156,0.54883 -7.28,-5.3 -10.97922,-13.75984 -7.44922,-22.33984 4.17,-10.14 15.08063,-17.49914 24.89062,-21.11915 83.27978,-20.79515 132.15076,-29.14547 175.25754,-127.90206 z m 679.37138,187.94699 c 0.14463,-0.001 0.28882,0.007 0.43164,0.0254 5.88666,0.68666 9.4289,3.76495 10.6289,9.23828 2.69,12.26 -8.81031,27.5014 -17.57031,35.6914 -9.44667,8.85335 -20.2862,15.16612 -32.51953,18.93946 -0.42037,0.13294 -0.83272,-0.22535 -0.75977,-0.66016 3.49,-21.78 12.96985,-46.14047 31.08985,-59.73047 1.71333,-1.29333 4.32651,-2.4189 7.83984,-3.3789 0.28108,-0.0795 0.57005,-0.12149 0.85938,-0.125 z"
       sodipodi:nodetypes="sssssssssscccccccccccccccccccccccccccccccccccccccccccccccscccscccccccccccccccccccccccccccccccccccccccccccccccccccccccccccccccccccccccccccsccccscccccccccscccccccccccccccccccccccccccccccccccccccccccscccccsccccccsccccccccccccscccccccss" />
    <g
       id="g49"
       style="display:inline">
      <path
         fill="#14232e"
         d="m 798.8,193.14 6.78,2.46 a 0.37,0.05 8 0 0 0.07,0.02 q 38.41,8.7 64.15,38.01 24.75,28.18 29.53,64.52 c 6.04,45.94 -12.72,92.6 -52.02,118.13 q -31.49,20.46 -68.99,20.81 -1.06,0.01 -2.33,0.05 -5.98,0.2 -11.95,0.69 L 379.5,437.64 q -7.95,-0.65 -15.9,-0.54 -9.55,0.13 -13.67,-0.39 c -35.88,-4.55 -68.38,-23.2 -88.74,-52.96 -15.85,-23.16 -23.44,-51.83 -21.03,-80.09 q 2.72,-31.86 21.26,-58.3 29.69,-42.34 82.68,-52.24 5.57,-0.36 12.15,-0.36 204.37,-0.02 408.75,-0.08 16.89,0 33.8,0.46 z"
         id="path15" />
      <path
         fill="#f8f5f0"
         d="m 569.03,233.62 c 30.36667,0.0133 56.37667,-0.01 78.03,-0.07 0.29302,-0.01 0.48073,0.30852 0.33,0.56 -10.39333,18.70667 -16.79333,38.82667 -19.2,60.36 -3.9,34.91333 2.11333,67.85 18.04,98.81 0.14,0.26667 0.2,0.49 0.18,0.67 -0.04,0.37333 -0.25,0.56333 -0.63,0.57 -1.38,0.04 -26.98,0.05 -76.8,0.03 -49.82,-0.0133 -75.42,-0.0367 -76.8,-0.07 -0.38667,-0.0133 -0.6,-0.20667 -0.64,-0.58 -0.02,-0.18 0.0433,-0.40333 0.19,-0.67 15.94,-30.94667 21.97,-63.88 18.09,-98.8 -2.39333,-21.53333 -8.78,-41.65667 -19.16,-60.37 -0.13885,-0.24925 0.0447,-0.55522 0.33,-0.55 21.65333,0.0667 47.66667,0.10333 78.04,0.11 z"
         id="path20"
         sodipodi:nodetypes="ccccccccccccccc" />
      <g
         id="g47">
        <path
           fill="#f39d1b"
           d="M 886.72,314.63 A 107.12,107.12 0 0 1 779.6,421.75 107.12,107.12 0 0 1 672.48,314.63 107.12,107.12 0 0 1 779.6,207.51 107.12,107.12 0 0 1 886.72,314.63 Z"
           id="path17" />
        <path
           fill="#f8f5f0"
           d="m 871.41,301.77 c 7.03,50.16 -27.37,98.67 -78.09,105.09 q -34.33,4.34 -61.85,-12.73 c -23.84,-14.8 -39.74,-38.74 -43.65,-66.65 -3.91,-27.92 4.8,-55.3 23.66,-76.07 q 21.78,-23.98 55.98,-29.24 c 50.53,-7.76 96.93,29.44 103.95,79.6 z"
           id="path18" />
        <path
           id="rect38"
           style="fill:#14232e"
           d="m -0.35000038,-11.72 h 0.70000076 c 2.62595992,0 4.73999982,2.1140396 4.73999982,4.7399995 V 6.9800005 C 5.0900002,9.6059604 2.9759603,11.72 0.35000038,11.72 H -0.35000038 C -2.9759603,11.72 -5.0900002,9.6059604 -5.0900002,6.9800005 v -13.960001 c 0,-2.6259599 2.1140399,-4.7399995 4.73999982,-4.7399995 z M 46.252795,-7.8715103 a 5.3600001,5.3600001 0 0 1 -5.341257,5.3786772 5.3600001,5.3600001 0 0 1 -5.378678,-5.3412575 5.3600001,5.3600001 0 0 1 5.341258,-5.3786774 5.3600001,5.3600001 0 0 1 5.378677,5.3412577 z m -81.649153,0.385021 a 5.4000001,5.4000001 0 0 1 -5.381118,5.4188167 5.4000001,5.4000001 0 0 1 -5.418817,-5.3811176 5.4000001,5.4000001 0 0 1 5.381118,-5.4188168 5.4000001,5.4000001 0 0 1 5.418817,5.3811177 z M 74.541049,-37.080413 a 5.4000001,5.4000001 0 0 1 -5.381117,5.418817 5.4000001,5.4000001 0 0 1 -5.418817,-5.381118 5.4000001,5.4000001 0 0 1 5.381118,-5.418816 5.4000001,5.4000001 0 0 1 5.418816,5.381117 z m -137.76918,0.480907 a 5.4000001,5.4000001 0 0 1 -5.381118,5.418817 5.4000001,5.4000001 0 0 1 -5.418817,-5.381118 5.4000001,5.4000001 0 0 1 5.381118,-5.418816 5.4000001,5.4000001 0 0 1 5.418817,5.381117 z m -7.47003,-8.987969 c 1.150861,0.321935 2.542217,0.272588 4.099514,-0.327012 17.734604,-6.727706 36.040704,-13.509058 54.919586,-20.345209 0.427889,-0.152825 0.906396,-0.08306 1.27534,0.186819 3.9706646,2.873438 7.9397233,4.178221 11.9071232,3.91629 1.1074712,-0.07607 2.1885995,0.371323 2.9285572,1.208755 13.3439266,14.972882 20.3065096,22.814006 20.8865376,23.523076 2.542768,3.131923 5.939341,4.894268 9.083855,2.303155 3.20157,-2.638311 3.511187,-5.56201 0.929535,-8.769498 -7.772163,-9.650229 -14.858185,-18.009345 -21.256934,-25.076732 -0.716553,-0.798834 -1.113903,-1.832483 -1.114673,-2.903947 0.02519,-7.278602 -1.068077,-13.112181 -8.8304106,-16.001713 -7.8378542,-2.448396 -14.8046694,1.464137 -17.4266874,8.978015 -0.465695,1.050742 -1.326806,1.876813 -2.397305,2.300152 l -54.717396,21.51397 c -5.438017,2.459698 -4.39692,8.344279 -0.286671,9.493959 z m 69.2780732,-25.462061 a 4.3499999,4.3499999 0 0 1 -3.1130283,-5.305406 4.3499999,4.3499999 0 0 1 5.30540586,-3.113018 4.3499999,4.3499999 0 0 1 3.11302824,5.305386 4.3499999,4.3499999 0 0 1 -5.3054058,3.113038 z m -81.6450422,-9.437691 14.039978,0.0245 c 2.565016,0.0045 4.626389,2.073058 4.621912,4.638074 l -0.0013,0.759999 c -0.0045,2.565017 -2.073058,4.626389 -4.638075,4.621913 l -14.039977,-0.02451 c -2.565016,-0.0045 -4.62639,-2.073058 -4.621913,-4.638074 l 0.0013,-0.759999 c 0.0045,-2.565016 2.073058,-4.626389 4.638074,-4.621912 z m 152.623601,-0.714336 13.439815,-0.07037 c 2.498505,-0.01308 4.52047,1.987818 4.533553,4.486324 l 0.0039,0.739989 c 0.01308,2.498506 -1.987819,4.520471 -4.486324,4.533553 l -13.439815,0.07037 c -2.498506,0.01308 -4.520471,-1.987818 -4.533553,-4.486324 l -0.0039,-0.73999 c -0.01308,-2.498505 1.987819,-4.52047 4.486324,-4.533552 z m 5.158365,-34.429957 a 5.3099999,5.3099999 0 0 1 -5.291432,5.3285 5.3099999,5.3099999 0 0 1 -5.328503,-5.29143 5.3099999,5.3099999 0 0 1 5.291432,-5.32851 5.3099999,5.3099999 0 0 1 5.328503,5.29144 z m -138.249168,0.48258 a 5.3200002,5.3200002 0 0 1 -5.301397,5.33854 5.3200002,5.3200002 0 0 1 -5.338538,-5.3014 5.3200002,5.3200002 0 0 1 5.301397,-5.33854 5.3200002,5.3200002 0 0 1 5.338538,5.3014 z m 27.738741,-29.057 a 5.3499999,5.3499999 0 0 1 -5.331292,5.36865 5.3499999,5.3499999 0 0 1 -5.368643,-5.3313 5.3499999,5.3499999 0 0 1 5.331293,-5.36864 5.3499999,5.3499999 0 0 1 5.368642,5.33129 z m 82.189026,-0.4169 a 5.4299998,5.4299998 0 0 1 -5.411013,5.44892 5.4299998,5.4299998 0 0 1 -5.448921,-5.41101 5.4299998,5.4299998 0 0 1 5.411013,-5.44892 5.4299998,5.4299998 0 0 1 5.448921,5.41101 z m -47.07912302,-20.02742 h 0.9800005 c 2.54839992,0 4.59999992,2.0516 4.59999992,4.6 v 14.32 c 0,2.5484 -2.0516,4.6 -4.59999992,4.6 h -0.9800005 c -2.54839998,0 -4.59999998,-2.0516 -4.59999998,-4.6 v -14.32 c 0,-2.5484 2.0516,-4.6 4.59999998,-4.6 z"
           transform="rotate(0.2,-111583.27,223508.37)" />
      </g>
      <g
         id="g48">
        <path
           fill="#f39d1b"
           d="M 468.16,314.39 A 107.16,107.16 0 0 1 361,421.55 107.16,107.16 0 0 1 253.84,314.39 107.16,107.16 0 0 1 361,207.23 107.16,107.16 0 0 1 468.16,314.39 Z"
           id="path16" />
        <path
           fill="#f8f5f0"
           d="m 329.2208,226.9476 a 93.15,93.02 -110 0 1 119.2694,55.7177 93.15,93.02 -110 0 1 -55.551,119.3471 93.15,93.02 -110 0 1 -119.2694,-55.7177 93.15,93.02 -110 0 1 55.551,-119.3471 z"
           id="path19" />
        <path
           id="circle47"
           style="fill:#14232e"
           d="m 435.59808,275.95914 a 5.3800001,5.3800001 0 0 1 -5.38,5.38 5.3800001,5.3800001 0 0 1 -5.38,-5.38 5.3800001,5.3800001 0 0 1 5.38,-5.38 5.3800001,5.3800001 0 0 1 5.38,5.38 z m -75.2774,102.89048 0.46,8e-4 c 2.70352,0.005 4.8762,2.18499 4.87148,4.88851 l -0.0243,13.93998 c -0.005,2.70351 -2.185,4.87619 -4.88851,4.87147 l -0.46,-8e-4 c -2.70352,-0.005 -4.8762,-2.18499 -4.87148,-4.88851 l 0.0243,-13.93998 c 0.005,-2.70351 2.185,-4.87619 4.88851,-4.87147 z m 47.08933,4.29039 a 5.3400002,5.3400002 0 0 1 -5.34,5.34 5.3400002,5.3400002 0 0 1 -5.34,-5.34 5.3400002,5.3400002 0 0 1 5.34,-5.34 5.3400002,5.3400002 0 0 1 5.34,5.34 z m -82.29,-0.09 a 5.4499998,5.4499998 0 0 1 -5.45,5.45 5.4499998,5.4499998 0 0 1 -5.45,-5.45 5.4499998,5.4499998 0 0 1 5.45,-5.45 5.4499998,5.4499998 0 0 1 5.45,5.45 z m 110.74998,-29.25 a 5.4099998,5.4099998 0 0 1 -5.41,5.41 5.4099998,5.4099998 0 0 1 -5.41,-5.41 5.4099998,5.4099998 0 0 1 5.41,-5.41 5.4099998,5.4099998 0 0 1 5.41,5.41 z m -138.65999,-0.01 a 5.4000001,5.4000001 0 0 1 -5.4,5.4 5.4000001,5.4000001 0 0 1 -5.4,-5.4 5.4000001,5.4000001 0 0 1 5.4,-5.4 5.4000001,5.4000001 0 0 1 5.4,5.4 z m 133.80301,-43.89687 13.23992,-0.0462 c 2.52068,-0.009 4.55705,2.01341 4.56585,4.53409 l 0.002,0.66 c 0.009,2.52068 -2.0134,4.55705 -4.53409,4.56585 l -13.23992,0.0462 c -2.52068,0.009 -4.55705,-2.01341 -4.56585,-4.53409 l -0.002,-0.66 c -0.009,-2.52068 2.0134,-4.55705 4.53409,-4.56585 z m -152.69056,-0.11633 13.67898,0.16713 c 2.59807,0.0317 4.66409,2.14888 4.63235,4.74695 l -0.009,0.75994 c -0.0317,2.59807 -2.14888,4.6641 -4.74695,4.63236 l -13.67898,-0.16713 c -2.59807,-0.0317 -4.66409,-2.14888 -4.63235,-4.74695 l 0.009,-0.75994 c 0.0318,-2.59807 2.14888,-4.6641 4.74695,-4.63236 z m 18.62756,-34.53682 a 5.3099999,5.3099999 0 0 1 -5.31,5.31 5.3099999,5.3099999 0 0 1 -5.31,-5.31 5.3099999,5.3099999 0 0 1 5.31,-5.31 5.3099999,5.3099999 0 0 1 5.31,5.31 z m 124.84491,-6.91968 c -1.19485,-0.0215 -2.52885,0.37689 -3.88476,1.34961 -15.46667,10.98 -31.47286,22.15597 -48.01954,33.5293 -0.37555,0.25573 -0.8562,0.30878 -1.28124,0.14062 -4.56667,-1.78 -8.73644,-2.04239 -12.50977,-0.78906 -1.05255,0.35277 -2.21154,0.19223 -3.13867,-0.43164 -16.68667,-11.12667 -25.40063,-16.96 -26.14063,-17.5 -3.25,-2.39 -6.98109,-3.23945 -9.37109,0.0605 -2.43333,3.36 -1.99612,6.26737 1.31055,8.7207 9.95333,7.38 18.91729,13.68349 26.89062,18.91016 0.89474,0.59246 1.53977,1.4926 1.81055,2.52929 1.81,7.05 4.33812,12.41977 12.57812,13.25977 8.20191,0.39409 13.95781,-5.14793 14.60156,-13.08008 0.18586,-1.13419 0.811,-2.15062 1.74024,-2.83008 l 47.5293,-34.60937 c 4.64261,-3.7508 2.15209,-9.18306 -2.11524,-9.25977 z m -60.625,42.09961 a 4.3499999,4.3499999 0 0 1 4.34961,4.34961 4.3499999,4.3499999 0 0 1 -4.34961,4.34961 4.3499999,4.3499999 0 0 1 -4.34961,-4.34961 4.3499999,4.3499999 0 0 1 4.34961,-4.34961 z M 408.04,246.63 a 5.3800001,5.3800001 0 0 1 -5.38,5.38 5.3800001,5.3800001 0 0 1 -5.38,-5.38 5.3800001,5.3800001 0 0 1 5.38,-5.38 5.3800001,5.3800001 0 0 1 5.38,5.38 z m -82.74,-0.23001 a 5.4200001,5.4200001 0 0 1 -5.42,5.42 5.4200001,5.4200001 0 0 1 -5.42,-5.42 5.4200001,5.4200001 0 0 1 5.42,-5.42 5.4200001,5.4200001 0 0 1 5.42,5.42 z m 35.81906,-20.1295 0.54,-9.4e-4 c 2.68689,-0.005 4.85376,2.15463 4.85845,4.84152 l 0.025,14.29998 c 0.005,2.6869 -2.15463,4.85377 -4.84153,4.85846 l -0.54,9.4e-4 c -2.68689,0.005 -4.85376,-2.15463 -4.85845,-4.84152 l -0.025,-14.29998 c -0.005,-2.6869 2.15463,-4.85377 4.84153,-4.85846 z" />
      </g>
    </g>
  </g>
</svg>
